# MagicaVoxel @ ephtracy

# material
mtllib Bullet.mtl
usemtl palette

# normals
vn -1 0 0
vn 1 0 0
vn 0 0 1
vn 0 0 -1
vn 0 -1 0
vn 0 1 0

# texcoords
vt 0.966797 0.5
vt 0.970703 0.5
vt 0.994141 0.5

# verts
v -2 0 2
v -2 0 1
v -2 0 -0
v -2 0 -1
v -2 0 -2
v -2 1 2
v -2 1 1
v -2 1 -0
v -2 1 -1
v -2 1 -2
v -2 2 2
v -2 2 1
v -2 2 -0
v -2 2 -1
v -2 2 -2
v -2 3 2
v -2 3 1
v -2 3 -0
v -2 3 -1
v -2 3 -2
v -2 4 2
v -2 4 1
v -2 4 -0
v -2 4 -1
v -2 4 -2
v 1 1 1
v 1 1 -0
v 1 1 -1
v 1 2 1
v 1 2 -0
v 1 2 -1
v 1 3 1
v 1 3 -0
v 1 3 -1
v -1 1 1
v -1 1 -0
v -1 1 -1
v -1 2 1
v -1 2 -0
v -1 2 -1
v -1 3 1
v -1 3 -0
v -1 3 -1
v 2 0 2
v 2 0 1
v 2 0 -0
v 2 0 -1
v 2 0 -2
v 2 1 2
v 2 1 1
v 2 1 -0
v 2 1 -1
v 2 1 -2
v 2 2 2
v 2 2 1
v 2 2 -0
v 2 2 -1
v 2 2 -2
v 2 3 2
v 2 3 1
v 2 3 -0
v 2 3 -1
v 2 3 -2
v 2 4 2
v 2 4 1
v 2 4 -0
v 2 4 -1
v 2 4 -2
v -2 0 2
v -2 1 2
v -2 2 2
v -2 3 2
v -2 4 2
v -1 0 2
v -1 1 2
v -1 2 2
v -1 3 2
v -1 4 2
v 0 0 2
v 0 1 2
v 0 2 2
v 0 3 2
v 0 4 2
v 1 0 2
v 1 1 2
v 1 2 2
v 1 3 2
v 1 4 2
v 2 0 2
v 2 1 2
v 2 2 2
v 2 3 2
v 2 4 2
v -1 1 -1
v -1 2 -1
v -1 3 -1
v 0 1 -1
v 0 2 -1
v 0 3 -1
v 1 1 -1
v 1 2 -1
v 1 3 -1
v -1 1 1
v -1 2 1
v -1 3 1
v 0 1 1
v 0 2 1
v 0 3 1
v 1 1 1
v 1 2 1
v 1 3 1
v -2 0 -2
v -2 1 -2
v -2 2 -2
v -2 3 -2
v -2 4 -2
v -1 0 -2
v -1 1 -2
v -1 2 -2
v -1 3 -2
v -1 4 -2
v 0 0 -2
v 0 1 -2
v 0 2 -2
v 0 3 -2
v 0 4 -2
v 1 0 -2
v 1 1 -2
v 1 2 -2
v 1 3 -2
v 1 4 -2
v 2 0 -2
v 2 1 -2
v 2 2 -2
v 2 3 -2
v 2 4 -2
v -2 0 2
v -1 0 2
v 0 0 2
v 1 0 2
v 2 0 2
v -2 0 1
v -1 0 1
v 0 0 1
v 1 0 1
v 2 0 1
v -2 0 -0
v -1 0 -0
v 1 0 -0
v 2 0 -0
v -2 0 -1
v -1 0 -1
v 0 0 -1
v 1 0 -1
v 2 0 -1
v -2 0 -2
v -1 0 -2
v 0 0 -2
v 1 0 -2
v 2 0 -2
v -1 3 1
v 0 3 1
v 1 3 1
v -1 3 -0
v 0 3 -0
v 1 3 -0
v -1 3 -1
v 0 3 -1
v 1 3 -1
v -1 1 1
v 0 1 1
v 1 1 1
v -1 1 -0
v 1 1 -0
v -1 1 -1
v 0 1 -1
v 1 1 -1
v -2 4 2
v -1 4 2
v 0 4 2
v 1 4 2
v 2 4 2
v -2 4 1
v -1 4 1
v 0 4 1
v 1 4 1
v 2 4 1
v -2 4 -0
v -1 4 -0
v 0 4 -0
v 1 4 -0
v 2 4 -0
v -2 4 -1
v -1 4 -1
v 0 4 -1
v 1 4 -1
v 2 4 -1
v -2 4 -2
v -1 4 -2
v 0 4 -2
v 1 4 -2
v 2 4 -2

# faces
f 6/1/1 2/1/1 1/1/1
f 7/3/1 3/3/1 2/3/1
f 7/1/1 2/1/1 6/1/1
f 8/1/1 4/1/1 3/1/1
f 8/3/1 3/3/1 7/3/1
f 9/3/1 5/3/1 4/3/1
f 9/1/1 4/1/1 8/1/1
f 10/3/1 5/3/1 9/3/1
f 11/3/1 7/3/1 6/3/1
f 12/1/1 8/1/1 7/1/1
f 12/3/1 7/3/1 11/3/1
f 13/3/1 9/3/1 8/3/1
f 13/1/1 8/1/1 12/1/1
f 14/1/1 10/1/1 9/1/1
f 14/3/1 9/3/1 13/3/1
f 15/1/1 10/1/1 14/1/1
f 16/1/1 12/1/1 11/1/1
f 17/3/1 13/3/1 12/3/1
f 17/1/1 12/1/1 16/1/1
f 18/1/1 14/1/1 13/1/1
f 18/3/1 13/3/1 17/3/1
f 19/3/1 15/3/1 14/3/1
f 19/1/1 14/1/1 18/1/1
f 20/3/1 15/3/1 19/3/1
f 21/3/1 17/3/1 16/3/1
f 22/1/1 18/1/1 17/1/1
f 22/3/1 17/3/1 21/3/1
f 23/3/1 19/3/1 18/3/1
f 23/1/1 18/1/1 22/1/1
f 24/1/1 20/1/1 19/1/1
f 24/3/1 19/3/1 23/3/1
f 25/1/1 20/1/1 24/1/1
f 29/3/1 27/3/1 26/3/1
f 30/1/1 28/1/1 27/1/1
f 30/3/1 27/3/1 29/3/1
f 31/1/1 28/1/1 30/1/1
f 32/1/1 30/1/1 29/1/1
f 33/3/1 31/3/1 30/3/1
f 33/1/1 30/1/1 32/1/1
f 34/3/1 31/3/1 33/3/1
f 35/1/2 36/1/2 38/1/2
f 36/3/2 37/3/2 39/3/2
f 38/1/2 36/1/2 39/1/2
f 39/3/2 37/3/2 40/3/2
f 38/3/2 39/3/2 41/3/2
f 39/1/2 40/1/2 42/1/2
f 41/3/2 39/3/2 42/3/2
f 42/1/2 40/1/2 43/1/2
f 44/3/2 45/3/2 49/3/2
f 45/1/2 46/1/2 50/1/2
f 49/3/2 45/3/2 50/3/2
f 46/3/2 47/3/2 51/3/2
f 50/1/2 46/1/2 51/1/2
f 47/1/2 48/1/2 52/1/2
f 51/3/2 47/3/2 52/3/2
f 52/1/2 48/1/2 53/1/2
f 49/1/2 50/1/2 54/1/2
f 50/3/2 51/3/2 55/3/2
f 54/1/2 50/1/2 55/1/2
f 51/1/2 52/1/2 56/1/2
f 55/3/2 51/3/2 56/3/2
f 52/3/2 53/3/2 57/3/2
f 56/1/2 52/1/2 57/1/2
f 57/3/2 53/3/2 58/3/2
f 54/3/2 55/3/2 59/3/2
f 55/1/2 56/1/2 60/1/2
f 59/3/2 55/3/2 60/3/2
f 56/3/2 57/3/2 61/3/2
f 60/1/2 56/1/2 61/1/2
f 57/1/2 58/1/2 62/1/2
f 61/3/2 57/3/2 62/3/2
f 62/1/2 58/1/2 63/1/2
f 59/1/2 60/1/2 64/1/2
f 60/3/2 61/3/2 65/3/2
f 64/1/2 60/1/2 65/1/2
f 61/1/2 62/1/2 66/1/2
f 65/3/2 61/3/2 66/3/2
f 62/3/2 63/3/2 67/3/2
f 66/1/2 62/1/2 67/1/2
f 67/3/2 63/3/2 68/3/2
f 74/1/3 70/1/3 69/1/3
f 75/3/3 71/3/3 70/3/3
f 75/1/3 70/1/3 74/1/3
f 76/1/3 72/1/3 71/1/3
f 76/3/3 71/3/3 75/3/3
f 77/3/3 73/3/3 72/3/3
f 77/1/3 72/1/3 76/1/3
f 78/3/3 73/3/3 77/3/3
f 79/3/3 75/3/3 74/3/3
f 80/1/3 76/1/3 75/1/3
f 80/3/3 75/3/3 79/3/3
f 81/3/3 77/3/3 76/3/3
f 81/1/3 76/1/3 80/1/3
f 82/1/3 78/1/3 77/1/3
f 82/3/3 77/3/3 81/3/3
f 83/1/3 78/1/3 82/1/3
f 84/1/3 80/1/3 79/1/3
f 85/3/3 81/3/3 80/3/3
f 85/1/3 80/1/3 84/1/3
f 86/1/3 82/1/3 81/1/3
f 86/3/3 81/3/3 85/3/3
f 87/3/3 83/3/3 82/3/3
f 87/1/3 82/1/3 86/1/3
f 88/3/3 83/3/3 87/3/3
f 89/3/3 85/3/3 84/3/3
f 90/1/3 86/1/3 85/1/3
f 90/3/3 85/3/3 89/3/3
f 91/3/3 87/3/3 86/3/3
f 91/1/3 86/1/3 90/1/3
f 92/1/3 88/1/3 87/1/3
f 92/3/3 87/3/3 91/3/3
f 93/1/3 88/1/3 92/1/3
f 97/3/3 95/3/3 94/3/3
f 98/1/3 96/1/3 95/1/3
f 98/3/3 95/3/3 97/3/3
f 99/1/3 96/1/3 98/1/3
f 100/1/3 98/1/3 97/1/3
f 101/3/3 99/3/3 98/3/3
f 101/1/3 98/1/3 100/1/3
f 102/3/3 99/3/3 101/3/3
f 103/1/4 104/1/4 106/1/4
f 104/3/4 105/3/4 107/3/4
f 106/1/4 104/1/4 107/1/4
f 107/3/4 105/3/4 108/3/4
f 106/3/4 107/3/4 109/3/4
f 107/1/4 108/1/4 110/1/4
f 109/3/4 107/3/4 110/3/4
f 110/1/4 108/1/4 111/1/4
f 112/3/4 113/3/4 117/3/4
f 113/1/4 114/1/4 118/1/4
f 117/3/4 113/3/4 118/3/4
f 114/3/4 115/3/4 119/3/4
f 118/1/4 114/1/4 119/1/4
f 115/1/4 116/1/4 120/1/4
f 119/3/4 115/3/4 120/3/4
f 120/1/4 116/1/4 121/1/4
f 117/1/4 118/1/4 122/1/4
f 118/3/4 119/3/4 123/3/4
f 122/1/4 118/1/4 123/1/4
f 119/1/4 120/1/4 124/1/4
f 123/3/4 119/3/4 124/3/4
f 120/3/4 121/3/4 125/3/4
f 124/1/4 120/1/4 125/1/4
f 125/3/4 121/3/4 126/3/4
f 122/3/4 123/3/4 127/3/4
f 123/1/4 124/1/4 128/1/4
f 127/3/4 123/3/4 128/3/4
f 124/3/4 125/3/4 129/3/4
f 128/1/4 124/1/4 129/1/4
f 125/1/4 126/1/4 130/1/4
f 129/3/4 125/3/4 130/3/4
f 130/1/4 126/1/4 131/1/4
f 127/1/4 128/1/4 132/1/4
f 128/3/4 129/3/4 133/3/4
f 132/1/4 128/1/4 133/1/4
f 129/1/4 130/1/4 134/1/4
f 133/3/4 129/3/4 134/3/4
f 130/3/4 131/3/4 135/3/4
f 134/1/4 130/1/4 135/1/4
f 135/3/4 131/3/4 136/3/4
f 142/1/5 138/1/5 137/1/5
f 143/3/5 139/3/5 138/3/5
f 143/1/5 138/1/5 142/1/5
f 144/1/5 140/1/5 139/1/5
f 144/3/5 139/3/5 143/3/5
f 145/3/5 141/3/5 140/3/5
f 145/1/5 140/1/5 144/1/5
f 146/3/5 141/3/5 145/3/5
f 147/3/5 143/3/5 142/3/5
f 148/1/5 144/1/5 143/1/5
f 148/3/5 143/3/5 147/3/5
f 148/1/5 145/1/5 144/1/5
f 148/1/5 146/1/5 145/1/5
f 149/1/5 146/1/5 148/1/5
f 150/1/5 146/1/5 149/1/5
f 151/1/5 148/1/5 147/1/5
f 152/2/5 149/2/5 148/2/5
f 152/1/5 148/1/5 151/1/5
f 153/2/5 149/2/5 152/2/5
f 154/3/5 150/3/5 149/3/5
f 154/2/5 149/2/5 153/2/5
f 155/3/5 150/3/5 154/3/5
f 156/3/5 152/3/5 151/3/5
f 157/1/5 153/1/5 152/1/5
f 157/3/5 152/3/5 156/3/5
f 158/3/5 154/3/5 153/3/5
f 158/1/5 153/1/5 157/1/5
f 159/1/5 155/1/5 154/1/5
f 159/3/5 154/3/5 158/3/5
f 160/1/5 155/1/5 159/1/5
f 164/3/5 162/3/5 161/3/5
f 165/1/5 163/1/5 162/1/5
f 165/3/5 162/3/5 164/3/5
f 166/1/5 163/1/5 165/1/5
f 167/1/5 165/1/5 164/1/5
f 168/3/5 166/3/5 165/3/5
f 168/1/5 165/1/5 167/1/5
f 169/3/5 166/3/5 168/3/5
f 170/1/6 171/1/6 173/1/6
f 171/1/6 172/1/6 173/1/6
f 173/1/6 172/1/6 174/1/6
f 173/2/6 174/2/6 175/2/6
f 175/2/6 174/2/6 176/2/6
f 176/2/6 174/2/6 177/2/6
f 178/3/6 179/3/6 183/3/6
f 179/1/6 180/1/6 184/1/6
f 183/3/6 179/3/6 184/3/6
f 180/3/6 181/3/6 185/3/6
f 184/1/6 180/1/6 185/1/6
f 181/1/6 182/1/6 186/1/6
f 185/3/6 181/3/6 186/3/6
f 186/1/6 182/1/6 187/1/6
f 183/1/6 184/1/6 188/1/6
f 184/3/6 185/3/6 189/3/6
f 188/1/6 184/1/6 189/1/6
f 185/1/6 186/1/6 190/1/6
f 189/3/6 185/3/6 190/3/6
f 186/3/6 187/3/6 191/3/6
f 190/1/6 186/1/6 191/1/6
f 191/3/6 187/3/6 192/3/6
f 188/3/6 189/3/6 193/3/6
f 189/1/6 190/1/6 194/1/6
f 193/3/6 189/3/6 194/3/6
f 190/3/6 191/3/6 195/3/6
f 194/1/6 190/1/6 195/1/6
f 191/1/6 192/1/6 196/1/6
f 195/3/6 191/3/6 196/3/6
f 196/1/6 192/1/6 197/1/6
f 193/1/6 194/1/6 198/1/6
f 194/3/6 195/3/6 199/3/6
f 198/1/6 194/1/6 199/1/6
f 195/1/6 196/1/6 200/1/6
f 199/3/6 195/3/6 200/3/6
f 196/3/6 197/3/6 201/3/6
f 200/1/6 196/1/6 201/1/6
f 201/3/6 197/3/6 202/3/6
